:SAMPLES-PER-SECOND 30
:FULLY-SPECIFIED
:DEGREES
585
root  47.0283 37.8698 11.5553 148.521 74.3346 156.584
RightUpLeg  -14.1898 4.23934 -10.9247
RightLeg  66.9985 2.23797 5.16946
RightFoot  1.25238 -0.700618 6.43963
RightToes  4.6566e-010 0 -3.6325e-017
Spine  7.93796 -0.68096 -3.86965
Spine1  9.3963 -0.180862 -6.93891
HEad  -17.4935 2.3004 1.67967
LeftShoulder1  -0.307143 4.25644 -34.5079
LeftArm  0.621597 5.44564 -37.409
LeftForeArm  25.7043 -10.6206 -8.88754
LeftHand  -0.0247056 4.19101 -0.0975618
RightShoulder  -0.595273 -5.27991 26.7346
RightArm  28.53 -5.7255 50.2194
RightForeArm  -0.10132 22.7511 4.9876
RightHand  -0.400773 4.21799 -5.13385
LeftUpLeg  -4.21503 3.72764 -13.4594
LeftLeg  22.9056 5.02381 2.29026
LeftFoot  -9.44654 -0.114026 10.3112
LeftToes  -4.59298e-010 2.08438e-011 -1.27151e-011
586
root  48.1075 38.0658 11.2936 152.244 72.8938 160.599
RightUpLeg  -16.8564 5.15703 -10.6421
RightLeg  60.7441 1.92049 3.22682
RightFoot  -0.368474 -0.558612 5.76902
RightToes  4.6566e-010 0 -3.6325e-017
Spine  7.53422 -1.16011 -6.37785
Spine1  10.4457 -1.87352 -2.42623
HEad  -18.1675 3.04752 1.46295
LeftShoulder1  -0.534013 4.7544 -36.4956
LeftArm  4.2476 2.52214 -37.295
LeftForeArm  23.0347 -12.799 -8.62347
LeftHand  -0.034363 3.2173 0.975345
RightShoulder  -0.43348 -4.85138 25.3209
RightArm  26.0352 -5.46398 49.5828
RightForeArm  1.20882 26.1738 5.53442
RightHand  -0.453334 5.21018 -5.23641
LeftUpLeg  -0.9024 3.38897 -12.7362
LeftLeg  20.9142 3.90716 1.42473
LeftFoot  -10.4868 -0.0131992 10.3135
LeftToes  -4.59298e-010 2.08438e-011 -1.27151e-011
587
root  49.2149 38.1916 11.0218 155.63 71.2986 164.211
RightUpLeg  -18.3012 5.08869 -10.4076
RightLeg  51.9945 1.69095 1.95695
RightFoot  -1.5566 -0.380407 4.31192
RightToes  4.6566e-010 0 -3.6325e-017
Spine  7.78413 -1.93584 -6.77062
Spine1  9.62561 -2.92189 -1.16615
HEad  -18.2862 3.5156 2.09487
LeftShoulder1  -0.366414 4.38654 -35.408
LeftArm  8.45673 2.27393 -38.6781
LeftForeArm  19.0687 -16.3285 -7.12187
LeftHand  -0.0284354 3.35526 0.497165
RightShoulder  -0.306446 -4.44921 25.2829
RightArm  23.2851 -6.88346 48.6933
RightForeArm  1.60962 29.6875 6.37625
RightHand  -0.632387 5.41613 -7.10063
LeftUpLeg  2.04777 3.49145 -11.8964
LeftLeg  19.5382 2.02461 0.688288
LeftFoot  -11.6569 0.0976403 10.3576
LeftToes  -4.59298e-010 2.08438e-011 -1.27151e-011
588
root  50.3339 38.2211 10.7463 156.865 69.9532 165.342
RightUpLeg  -18.9825 4.28618 -10.692
RightLeg  41.3772 1.56372 1.20524
RightFoot  -2.90021 -0.403232 5.29621
RightToes  4.6566e-010 0 -3.6325e-017
Spine  7.28437 -2.0448 -7.36769
Spine1  10.0045 -3.39932 0.768365
HEad  -18.2748 3.15735 2.0979
LeftShoulder1  -0.39254 4.42119 -36.4896
LeftArm  12.8164 0.080775 -39.0454
LeftForeArm  14.6189 -19.6707 -5.59978
LeftHand  -0.0596089 2.46577 1.95939
RightShoulder  -0.234158 -4.25482 23.5499
RightArm  18.2112 -8.957 49.0794
RightForeArm  3.74 33.4071 7.2141
RightHand  -0.557749 5.44876 -6.27738
LeftUpLeg  4.59584 3.43453 -11.6646
LeftLeg  18.3855 0.712606 0.366049
LeftFoot  -13.1051 0.230371 9.74953
LeftToes  -4.59298e-010 2.08438e-011 -1.27151e-011
589
root  51.445 38.1175 10.4289 156.725 69.2533 164.706
RightUpLeg  -19.2826 2.55978 -11.0073
RightLeg  29.7103 1.89212 0.935659
RightFoot  -3.89705 -0.554784 8.09601
RightToes  4.6566e-010 0 -3.6325e-017
Spine  6.7582 -1.77697 -8.31488
Spine1  10.1547 -3.65158 3.30225
HEad  -19.5651 2.62474 1.30728
LeftShoulder1  -0.635527 4.89406 -39.3216
LeftArm  15.539 -2.38889 -37.9025
LeftForeArm  11.3364 -24.1328 -4.44015
LeftHand  -0.0753383 1.17719 1.89602
RightShoulder  -0.0913573 -3.81995 20.8245
RightArm  12.9419 -11.3195 50.3591
RightForeArm  4.66606 37.0772 8.20515
RightHand  -0.576604 5.59493 -6.39573
LeftUpLeg  6.28037 3.56603 -11.917
LeftLeg  18.1243 0.252003 0.266851
LeftFoot  -14.8329 0.389052 9.81066
LeftToes  -4.59298e-010 2.08438e-011 -1.27151e-011
590
root  52.5532 38.0284 10.085 156.11 68.8564 163.513
RightUpLeg  -19.3228 -1.50399 -10.378
RightLeg  18.0092 3.74949 0.942579
RightFoot  -3.21651 -0.453479 6.04224
RightToes  4.6566e-010 0 -3.6325e-017
Spine  5.88656 -1.37982 -8.54016
Spine1  10.9337 -3.62161 5.51343
HEad  -21.1168 3.19535 -0.497951
LeftShoulder1  -0.961279 5.44885 -42.7837
LeftArm  14.8376 -5.6544 -35.8557
LeftForeArm  11.5576 -28.6001 -5.57096
LeftHand  -0.0978108 1.03514 2.55912
RightShoulder  -0.0817484 -3.80343 18.2474
RightArm  7.40744 -13.4475 52.0235
RightForeArm  6.05985 41.0396 9.35883
RightHand  -0.530237 5.09909 -6.15825
LeftUpLeg  8.24393 3.41668 -12.3517
LeftLeg  17.146 0.226916 0.26079
LeftFoot  -16.2318 0.51137 9.65609
LeftToes  -4.59298e-010 2.08438e-011 -1.27151e-011
591
root  53.739 37.9185 9.7501 156.464 68.2769 163.762
RightUpLeg  -17.8216 -8.192 -8.25354
RightLeg  6.27206 5.27072 0.464242
RightFoot  -3.62901 -0.553158 7.9024
RightToes  4.6566e-010 0 -3.6325e-017
Spine  4.67507 -1.35746 -9.51767
Spine1  12.4368 -4.51531 8.96118
HEad  -22.1082 4.00225 -2.14116
LeftShoulder1  -1.35992 6.06887 -46.0766
LeftArm  12.4072 -7.87586 -33.8628
LeftForeArm  12.1179 -33.8693 -6.83445
LeftHand  -0.080751 2.73416 2.92628
RightShoulder  0.0531468 -3.23244 14.856
RightArm  2.21939 -14.9058 54.8841
RightForeArm  6.94677 44.0779 10.3811
RightHand  -0.670561 5.57075 -7.40478
LeftUpLeg  10.8083 3.82174 -11.9304
LeftLeg  16.1603 -0.903525 -0.125214
LeftFoot  -17.7194 0.627469 9.34176
LeftToes  -4.59298e-010 2.08438e-011 -1.27151e-011
592
root  54.9425 37.5943 9.40798 154.619 68.1418 161.202
RightUpLeg  -17.6462 -9.89076 -8.1203
RightLeg  -1.58967 1.32265 0.936316
RightFoot  -5.12185 -0.571431 9.78388
RightToes  4.6566e-010 0 -3.6325e-017
Spine  3.72637 -1.00977 -11.0096
Spine1  12.9235 -4.8889 11.8394
HEad  -22.9739 4.6835 -3.993
LeftShoulder1  -1.81902 6.70396 -49.327
LeftArm  10.8665 -12.001 -32.6894
LeftForeArm  12.4852 -36.6747 -7.60658
LeftHand  -0.0808426 2.25211 2.62065
RightShoulder  0.162076 -2.59369 10.9182
RightArm  -2.37625 -15.8573 57.895
RightForeArm  7.23315 47.5353 11.7585
RightHand  -0.796126 6.17726 -8.29609
LeftUpLeg  12.1558 3.8121 -12.8064
LeftLeg  16.6342 -0.616023 -0.085143
LeftFoot  -19.9964 0.796636 8.90395
LeftToes  -4.59298e-010 2.08438e-011 -1.27151e-011
593
root  56.1648 37.224 9.05234 153.035 68.1933 159.309
RightUpLeg  -18.0722 -9.26892 -7.85954
RightLeg  -4.02167 -1.77835 0.682716
RightFoot  -5.89812 -0.459514 8.75277
RightToes  4.6566e-010 0 -3.6325e-017
Spine  3.72814 -0.573224 -11.5537
Spine1  12.5392 -4.97238 13.9479
HEad  -23.4916 5.05937 -5.61846
LeftShoulder1  -2.44273 7.51172 -52.8845
LeftArm  9.67041 -16.2826 -30.4708
LeftForeArm  13.5478 -40.7462 -8.7784
LeftHand  -0.0807685 1.74108 2.31465
RightShoulder  0.200729 -2.1312 7.08225
RightArm  -6.77904 -16.0285 60.3176
RightForeArm  8.76232 51.7071 13.6042
RightHand  -0.91178 6.65785 -9.11277
LeftUpLeg  13.7401 3.87479 -13.4411
LeftLeg  17.4541 -0.230278 0.0874622
LeftFoot  -22.0807 0.961368 8.79472
LeftToes  -4.59298e-010 2.08438e-011 -1.27151e-011
594
root  57.4486 36.8278 8.70212 153.31 67.8181 159.442
RightUpLeg  -18.9429 -9.51718 -7.57148
RightLeg  -1.07115 -2.4901 1.04923
RightFoot  -5.50811 -0.428947 7.68377
RightToes  4.6566e-010 0 -3.6325e-017
Spine  3.6474 -0.662656 -12.411
Spine1  12.7846 -6.07217 17.1102
HEad  -24.4751 6.05339 -7.58538
LeftShoulder1  -2.96781 8.08703 -55.9212
LeftArm  7.60815 -21.3276 -28.8462
LeftForeArm  13.5067 -43.8883 -9.84532
LeftHand  -0.0962481 1.66562 2.77963
RightShoulder  0.182468 -1.8119 2.76426
RightArm  -10.4787 -13.8784 62.1646
RightForeArm  12.4311 55.7004 15.5931
RightHand  -0.907713 5.79291 -9.70805
LeftUpLeg  15.2758 3.91996 -13.2691
LeftLeg  18.9262 -0.409228 0.129351
LeftFoot  -24.34 1.09863 8.34402
LeftToes  -4.59298e-010 2.08438e-011 -1.27151e-011
595
root  58.6693 36.5867 8.28438 156.386 68.0048 162.316
RightUpLeg  -20.9446 -9.76174 -6.38771
RightLeg  4.55507 -3.74033 1.44424
RightFoot  -0.241576 -0.273287 3.26868
RightToes  4.6566e-010 0 -3.6325e-017
Spine  3.66613 -0.792029 -11.9305
Spine1  12.997 -7.52228 21.1596
HEad  -26.0895 8.24653 -11.1451
LeftShoulder1  -3.54505 8.64846 -59.2372
LeftArm  5.9336 -28.0464 -27.6504
LeftForeArm  11.9752 -45.1502 -10.4328
LeftHand  -0.137903 0.415837 3.20889
RightShoulder  0.132766 -1.41934 -2.43299
RightArm  -13.8632 -10.5938 63.2153
RightForeArm  14.8648 59.422 18.0209
RightHand  -0.822051 5.3462 -9.17574
LeftUpLeg  16.5355 3.09085 -12.39
LeftLeg  20.2105 0.316427 0.477776
LeftFoot  -25.7992 1.06739 7.17631
LeftToes  -4.59298e-010 2.08438e-011 -1.27151e-011
596
root  59.9267 36.4055 7.8052 160.817 69.2318 166.651
RightUpLeg  -23.2252 -10.9172 -3.876
RightLeg  9.73995 -3.78648 1.18189
RightFoot  8.88493 0.0882904 -0.326198
RightToes  4.6566e-010 0 -3.6325e-017
Spine  3.4485 -0.69316 -8.99539
Spine1  13.3 -8.08531 23.0441
HEad  -28.0833 9.88575 -14.0533
LeftShoulder1  -3.8712 8.92622 -61.1292
LeftArm  3.31802 -34.3272 -27.343
LeftForeArm  11.0797 -46.4871 -11.0219
LeftHand  -0.164098 0.795774 4.08476
RightShoulder  0.0489453 -1.17281 -7.35077
RightArm  -17.1981 -6.06394 63.4342
RightForeArm  15.8883 62.2987 20.4632
RightHand  -0.832305 4.57956 -10.041
LeftUpLeg  17.292 2.8281 -10.6216
LeftLeg  22.5253 0.713619 0.662636
LeftFoot  -26.4203 0.80962 4.93999
LeftToes  -4.59298e-010 2.08438e-011 -1.27151e-011
